<svg xmlns="http://www.w3.org/2000/svg" xmlns:xlink="http://www.w3.org/1999/xlink" version="1.1" x="0px" y="0px" viewBox="0 0 32 32" enable-background="new 0 0 32 32" xml:space="preserve">
    <g display="none">
        <rect x="-304" y="-169.49" display="inline" fill="#ffffff" width="430" height="210.5"></rect>
    </g>
    <g display="none">
        <g display="inline">
            <path d="M16,0C7.163,0,0,7.163,0,16s7.163,16,16,16s16-7.163,16-16S24.837,0,16,0z M16,31C7.729,31,1,24.271,1,16    C1,7.729,7.729,1,16,1c8.271,0,15,6.729,15,15C31,24.271,24.271,31,16,31z"></path>
            <polygon points="23.062,15.478 23.049,15.478 16.954,9.383 16.247,10.09 21.635,15.478 7.595,15.478 7.595,16.478 21.744,16.478     16.247,21.975 16.954,22.682 23.604,16.033 23.062,15.491   "></polygon>
        </g>
    </g>
    <g display="none">
        <g display="inline">
            <path d="M4.318,5.06c-4.893,5.097-5.731,13.092-1.986,19.088c3.225,5.164,9.297,8.06,15.336,7.517    C25.766,30.937,31.825,24.137,32,16.096C31.696,2.187,14.157-5.19,4.318,5.06z M17.725,31.146    C8.787,32.319,0.94,24.952,0.935,16.096C0.931,8.514,6.68,1.797,14.24,0.805c9.065-1.19,16.596,6.208,16.79,15.051    C30.863,23.448,25.397,30.14,17.725,31.146z"></path>
            <path d="M17.009,9.906c-0.186-0.186-1.133-0.261-0.887-0.015c0.962,0.962,1.924,1.924,2.886,2.885    c0.374,0.374,2.305,1.95,2.968,2.754c-4.784,0-9.569,0-14.353,0c-1.354,0-0.479,0.848,0.398,0.848c4.628,0,9.256,0,13.884,0    c-0.697,0.785-2.412,2.189-2.739,2.516c-1.019,1.018-2.037,2.037-3.056,3.055c-0.198,0.198,0.701,0.546,0.909,0.338    c2.037-2.037,4.075-4.073,6.112-6.11c0.048-0.048,0.034-0.116-0.011-0.162C21.084,13.979,19.046,11.942,17.009,9.906z"></path>
        </g>
    </g>
    <g display="none">
        <g display="inline">
            <path d="M16,0C7.163,0,0,7.163,0,16s7.163,16,16,16s16-7.163,16-16S24.837,0,16,0z M16,30C8.28,30,2,23.72,2,16    C2,8.28,8.28,2,16,2c7.72,0,14,6.28,14,14C30,23.72,23.72,30,16,30z"></path>
            <polygon points="15.894,10.444 20.428,14.978 7.595,14.978 7.595,16.978 20.537,16.978 15.894,21.622 17.308,23.036     24.311,16.033 17.308,9.03   "></polygon>
        </g>
    </g>
    <g>
        <g fill="#ffffff">
            <path d="M16,0C7.163,0,0,7.163,0,16s7.163,16,16,16s16-7.163,16-16S24.837,0,16,0z M16,31.5C7.453,31.5,0.5,24.547,0.5,16    C0.5,7.453,7.453,0.5,16,0.5c8.547,0,15.5,6.953,15.5,15.5C31.5,24.547,24.547,31.5,16,31.5z"></path>
            <polygon points="23.062,15.844 23.062,15.728 22.945,15.728 16.777,9.56 16.424,9.914 22.238,15.728 7.595,15.728 7.595,16.228     22.348,16.228 16.424,22.152 16.777,22.506 23.055,16.228 23.062,16.228 23.062,16.221 23.25,16.033   "></polygon>
        </g>
    </g>
</svg>